<?xml version="1.0" encoding="UTF-8"?>
<svg xmlns="http://www.w3.org/2000/svg" viewBox="241.6523 403.6914 479.8633 155.7891" width="479.8633" height="155.7891" fill="none">
  <path fill="#020202" fill-rule="nonzero" d="M 456.058594 480.585938 C 456.058594 467.542969 459.921875 456.886719 467.65625 448.609375 C 475.386719 440.332031 485.523438 436.195312 498.0625 436.195312 C 503.832031 436.113281 509.097656 436.949219 513.863281 438.703125 C 518.628906 440.460938 522.472656 442.738281 525.398438 445.539062 C 528.324219 448.339844 530.644531 451.160156 532.359375 454 C 534.070312 456.84375 535.304688 459.644531 536.058594 462.402344 L 532.546875 463.78125 C 530.957031 457.597656 527.238281 452.039062 521.386719 447.105469 C 515.535156 442.171875 507.761719 439.707031 498.0625 439.707031 C 486.527344 439.707031 477.3125 443.425781 470.414062 450.867188 C 463.519531 458.308594 460.070312 468.171875 460.070312 480.460938 C 460.070312 493.082031 463.433594 503.40625 470.164062 511.433594 C 476.890625 519.457031 485.941406 523.46875 497.3125 523.46875 C 507.257812 523.46875 515.386719 520.253906 521.699219 513.8125 C 528.011719 507.378906 531.417969 498.894531 531.921875 488.359375 L 497.5625 488.359375 L 497.5625 484.847656 L 535.683594 484.847656 L 535.683594 525.476562 L 531.921875 525.476562 L 531.921875 503.03125 C 529.664062 509.800781 525.734375 515.488281 520.132812 520.085938 C 514.53125 524.683594 506.921875 526.980469 497.3125 526.980469 C 484.6875 526.980469 474.65625 522.65625 467.21875 514.003906 C 459.777344 505.351562 456.058594 494.210938 456.058594 480.585938 "/>
  <path fill="#020202" fill-rule="nonzero" d="M 560.886719 525.476562 L 560.886719 437.699219 L 618.316406 437.699219 L 618.316406 441.210938 L 564.648438 441.210938 L 564.648438 477.828125 L 605.777344 477.828125 L 605.777344 481.335938 L 564.648438 481.335938 L 564.648438 521.964844 L 618.316406 521.964844 L 618.316406 525.476562 Z M 560.886719 525.476562 "/>
  <path fill="#020202" fill-rule="nonzero" d="M 639.636719 525.476562 L 639.636719 437.699219 L 645.777344 437.699219 L 675.75 507.796875 L 680.640625 519.582031 L 683.773438 511.933594 L 685.652344 507.671875 L 715.625 437.699219 L 721.515625 437.699219 L 721.515625 525.476562 L 717.753906 525.476562 L 717.753906 441.835938 L 682.144531 525.476562 L 679.007812 525.476562 L 643.394531 441.710938 L 643.394531 525.476562 Z M 639.636719 525.476562 "/>
  <path fill="#020202" fill-rule="nonzero" d="M 391.324219 511.898438 C 387.402344 521.175781 381.78125 529.511719 374.632812 536.667969 C 367.480469 543.8125 359.152344 549.433594 349.878906 553.351562 C 340.269531 557.417969 330.066406 559.480469 319.550781 559.480469 C 309.039062 559.480469 298.835938 557.417969 289.234375 553.351562 C 279.953125 549.433594 271.625 543.8125 264.472656 536.667969 C 257.320312 529.511719 251.703125 521.175781 247.78125 511.898438 C 243.992188 502.953125 241.945312 493.488281 241.6875 483.734375 L 241.652344 483.734375 L 241.652344 481.582031 C 241.652344 480.863281 241.667969 480.148438 241.6875 479.429688 C 241.945312 469.675781 243.992188 460.210938 247.78125 451.265625 C 251.703125 441.988281 257.320312 433.652344 264.472656 426.503906 C 271.625 419.351562 279.953125 413.730469 289.234375 409.8125 C 298.835938 405.746094 309.039062 403.691406 319.550781 403.691406 C 330.066406 403.691406 340.269531 405.746094 349.878906 409.8125 C 359.152344 413.730469 367.480469 419.351562 374.632812 426.503906 C 383.441406 435.3125 388.453125 444.859375 390.625 449.628906 C 390.757812 449.925781 390.820312 450.234375 390.820312 450.527344 C 390.820312 451.675781 389.902344 452.699219 388.65625 452.699219 C 387.792969 452.699219 387.027344 452.183594 386.671875 451.402344 C 375.125 425.828125 349.390625 407.988281 319.550781 407.988281 C 279.6875 407.988281 247.128906 439.84375 245.984375 479.429688 L 245.957031 479.429688 C 245.9375 480.148438 245.921875 480.863281 245.921875 481.582031 C 245.921875 482.300781 245.9375 483.015625 245.957031 483.734375 C 247.09375 523.648438 279.804688 555.664062 319.996094 555.664062 C 321.507812 555.664062 323.003906 555.617188 324.488281 555.523438 C 370.691406 552.761719 368.265625 483.734375 321.988281 483.734375 L 318.667969 483.734375 C 315.785156 483.734375 312.925781 484.246094 310.222656 485.246094 C 309.878906 485.375 309.601562 485.640625 309.476562 485.996094 L 307.003906 492.679688 C 306.59375 493.78125 305.035156 493.78125 304.621094 492.679688 L 302.152344 485.996094 C 302.027344 485.640625 301.753906 485.375 301.40625 485.246094 L 294.71875 482.765625 C 294.644531 482.746094 294.574219 482.710938 294.511719 482.675781 C 293.683594 482.195312 293.683594 480.96875 294.511719 480.496094 C 294.574219 480.460938 294.644531 480.425781 294.71875 480.398438 L 301.40625 477.917969 C 301.753906 477.792969 302.027344 477.523438 302.152344 477.175781 L 304.621094 470.484375 C 305.035156 469.390625 306.59375 469.390625 307.003906 470.484375 L 309.476562 477.175781 C 309.601562 477.523438 309.878906 477.792969 310.222656 477.917969 C 312.925781 478.917969 315.785156 479.429688 318.667969 479.429688 L 397.421875 479.429688 C 397.441406 480.398438 396.984375 498.503906 391.324219 511.898438 "/>
  <path fill="#020202" fill-rule="nonzero" d="M 379.675781 464.191406 L 385.613281 464.191406 L 385.613281 464.480469 L 379.675781 464.480469 Z M 382.398438 464.480469 L 382.707031 464.480469 L 382.707031 471.402344 L 382.398438 471.402344 Z M 382.398438 464.480469 "/>
  <path fill="#020202" fill-rule="nonzero" d="M 393.253906 464.191406 L 390.792969 469.941406 L 390.636719 470.289062 L 390.382812 470.917969 L 389.980469 469.949219 L 387.515625 464.191406 L 387.011719 464.191406 L 387.011719 471.402344 L 387.320312 471.402344 L 387.320312 464.519531 L 390.246094 471.402344 L 390.503906 471.402344 L 393.429688 464.53125 L 393.429688 471.402344 L 393.742188 471.402344 L 393.742188 464.191406 Z M 393.253906 464.191406 "/>
</svg>
